<?xml version="1.0" standalone="no"?>
<!DOCTYPE svg PUBLIC "-//W3C//DTD SVG 1.1//EN" "http://www.w3.org/Graphics/SVG/1.1/DTD/svg11.dtd" >
<svg xmlns="http://www.w3.org/2000/svg" xmlns:xlink="http://www.w3.org/1999/xlink" version="1.1">
<metadata></metadata>
<defs>
<font id="alegre_sansregular" horiz-adv-x="700" >
<font-face units-per-em="2048" ascent="1638" descent="-410" />
<missing-glyph horiz-adv-x="300" />
<glyph horiz-adv-x="0" />
<glyph horiz-adv-x="682" />
<glyph unicode=" "  horiz-adv-x="300" />
<glyph unicode="&#x09;" horiz-adv-x="300" />
<glyph unicode="&#xa0;" horiz-adv-x="300" />
<glyph unicode="!" horiz-adv-x="300" d="M50 0v200h200v-200h-200zM50 950v400h200v-400l-25 -600h-150z" />
<glyph unicode="&#x22;" horiz-adv-x="600" d="M50 950l50 200h-50v200h200v-200l-100 -200h-100zM350 950l50 200h-50v200h200v-200l-100 -200h-100z" />
<glyph unicode="$" d="M50 300v100l200 25v-175q0 -41 29.5 -70.5t70.5 -29.5t70.5 29.5t29.5 70.5v100q0 100 -100 200l-200 200q-100 100 -100 250v50q0 124 88 212q70 70 162 84v204h100v-204q92 -14 162 -84q88 -88 88 -212v-100l-200 -25v175q0 41 -29.5 70.5t-70.5 29.5t-70.5 -29.5 t-29.5 -70.5v-100q0 -100 100 -200l200 -200q100 -100 100 -250v-50q0 -124 -88 -212q-70 -70 -162 -84v-204h-100v204q-92 14 -162 84q-88 88 -88 212z" />
<glyph unicode="%" horiz-adv-x="1150" d="M50 850v300q0 83 58.5 141.5t141.5 58.5t141.5 -58.5t58.5 -141.5v-300q0 -83 -58.5 -141.5t-141.5 -58.5q-82 0 -141 58.5t-59 141.5zM188 812q0 -26 18 -44t44 -18t44.5 18t18.5 44v375q0 26 -18.5 44.5t-44.5 18.5t-44 -18.5t-18 -44.5v-375zM300 0l400 1350h150 l-400 -1350h-150zM700 200v300q0 83 58.5 141.5t141.5 58.5t141.5 -58.5t58.5 -141.5v-300q0 -83 -58.5 -141.5t-141.5 -58.5q-82 0 -141 58.5t-59 141.5zM838 162q0 -26 18 -44t44 -18t44.5 18t18.5 44v375q0 26 -18.5 44.5t-44.5 18.5t-44 -18.5t-18 -44.5v-375z" />
<glyph unicode="&#x26;" d="M50 300v200q0 81 88 146q23 16 49 29q-26 13 -49 30q-88 64 -88 155v190q0 124 88 212t212 88t212 -88t88 -212v-100l-200 -25v175q0 41 -29.5 70.5t-70.5 29.5t-70.5 -29.5t-29.5 -70.5v-240q0 -45 29.5 -77.5t70.5 -32.5h300v-750h-300q-124 0 -212 88t-88 212z M250 250q0 -41 29.5 -70.5t70.5 -29.5h100v450h-100q-41 0 -70.5 -32.5t-29.5 -67.5v-250z" />
<glyph unicode="'" horiz-adv-x="300" d="M50 950l50 200h-50v200h200v-200l-100 -200h-100z" />
<glyph unicode="(" horiz-adv-x="500" d="M50 675q0 375 225 675h175q-204 -300 -204 -675t204 -675h-175q-225 300 -225 675z" />
<glyph unicode=")" horiz-adv-x="500" d="M50 0q204 300 204 675t-204 675h175q225 -300 225 -675t-225 -675h-175z" />
<glyph unicode="+" horiz-adv-x="650" d="M50 600v150h200v200h150v-200h200v-150h-200v-200h-150v200h-200z" />
<glyph unicode="," horiz-adv-x="300" d="M50 0v200h200v-200l-100 -200h-100l50 200h-50z" />
<glyph unicode="-" horiz-adv-x="500" d="M50 600v150h400v-150h-400z" />
<glyph unicode="." horiz-adv-x="300" d="M50 0v200h200v-200h-200z" />
<glyph unicode="/" horiz-adv-x="550" d="M0 0l400 1350h150l-400 -1350h-150z" />
<glyph unicode="0" d="M50 300v750q0 124 88 212t212 88t212 -88t88 -212v-750q0 -124 -88 -212t-212 -88t-212 88t-88 212zM250 250q0 -41 29.5 -70.5t70.5 -29.5t70.5 29.5t29.5 70.5v850q0 41 -29.5 70.5t-70.5 29.5t-70.5 -29.5t-29.5 -70.5v-850z" />
<glyph unicode="1" horiz-adv-x="500" d="M50 0v150h100v950h-100v150q100 0 200 100h100v-1200h100v-150h-400z" />
<glyph unicode="2" d="M50 0v300q0 150 100 250l200 200q100 100 100 200v150q0 41 -29.5 70.5t-70.5 29.5t-70.5 -29.5t-29.5 -70.5v-175l-200 25v100q0 124 88 212t212 88t212 -88t88 -212v-100q0 -150 -100 -250l-200 -200q-100 -100 -100 -200v-150h400v-150h-600z" />
<glyph unicode="3" d="M50 300v100l200 25v-175q0 -41 29.5 -70.5t70.5 -29.5t70.5 29.5t29.5 70.5v250q0 35 -29.5 67.5t-70.5 32.5h-75l-25 150h100q41 0 70.5 32.5t29.5 77.5v240q0 41 -29.5 70.5t-70.5 29.5t-70.5 -29.5t-29.5 -70.5v-175l-200 25v100q0 124 88 212t212 88t212 -88t88 -212 v-190q0 -91 -88 -155q-23 -17 -49 -30q26 -13 49 -29q88 -65 88 -146v-200q0 -124 -88 -212t-212 -88t-212 88t-88 212z" />
<glyph unicode="4" d="M50 400v200l188 750h200l-188 -750v-50h150v350l200 25v-375h50v-150h-50v-400h-200v400h-350z" />
<glyph unicode="5" d="M50 300v100l200 25v-175q0 -41 29.5 -70.5t70.5 -29.5t70.5 29.5t29.5 70.5v350q0 41 -29.5 70.5t-70.5 29.5h-300v650h600v-150h-400v-350h100q124 0 212 -88t88 -212v-250q0 -124 -88 -212t-212 -88t-212 88t-88 212z" />
<glyph unicode="6" d="M50 300v750q0 124 88 212t212 88t212 -88t88 -212v-100l-200 -25v175q0 41 -29.5 70.5t-70.5 29.5t-70.5 -29.5t-29.5 -70.5v-350h100q124 0 212 -88t88 -212v-150q0 -124 -88 -212t-212 -88t-212 88t-88 212zM250 250q0 -41 29.5 -70.5t70.5 -29.5t70.5 29.5t29.5 70.5 v250q0 41 -29.5 70.5t-70.5 29.5h-100v-350z" />
<glyph unicode="7" d="M50 0l410 1200h-260l-25 -200h-125v350h600v-150l-410 -1200h-190z" />
<glyph unicode="8" d="M50 300v200q0 81 88 146q23 16 49 29q-26 13 -49 30q-88 64 -88 155v190q0 124 88 212t212 88t212 -88t88 -212v-190q0 -91 -88 -155q-23 -17 -49 -30q26 -13 49 -29q88 -65 88 -146v-200q0 -124 -88 -212t-212 -88t-212 88t-88 212zM250 250q0 -41 29.5 -70.5 t70.5 -29.5t70.5 29.5t29.5 70.5v250q0 41 -29.5 70.5t-70.5 29.5t-70.5 -29.5t-29.5 -70.5v-250zM250 850q0 -41 29.5 -70.5t70.5 -29.5t70.5 29.5t29.5 70.5v250q0 41 -29.5 70.5t-70.5 29.5t-70.5 -29.5t-29.5 -70.5v-250z" />
<glyph unicode="9" d="M50 300v100l200 25v-175q0 -41 29.5 -70.5t70.5 -29.5t70.5 29.5t29.5 70.5v350h-100q-124 0 -212 88t-88 212v150q0 124 88 212t212 88t212 -88t88 -212v-750q0 -124 -88 -212t-212 -88t-212 88t-88 212zM250 850q0 -41 29.5 -70.5t70.5 -29.5h100v350q0 41 -29.5 70.5 t-70.5 29.5t-70.5 -29.5t-29.5 -70.5v-250z" />
<glyph unicode=":" horiz-adv-x="300" d="M50 0v200h200v-200h-200zM50 750v200h200v-200h-200z" />
<glyph unicode=";" horiz-adv-x="300" d="M50 0v200h200v-200l-100 -200h-100l50 200h-50zM50 750v200h200v-200h-200z" />
<glyph unicode="=" horiz-adv-x="650" d="M50 450v150h550v-150h-550zM50 750v150h550v-150h-550z" />
<glyph unicode="?" d="M50 950v100q0 124 88 212t212 88t212 -88t88 -212v-150q0 -124 -88 -212q-56 -56 -126 -76l-11 -262h-150l-17 400h92q41 0 70.5 29.5t29.5 70.5v250q0 41 -29.5 70.5t-70.5 29.5t-70.5 -29.5t-29.5 -70.5v-175zM250 0v200h200v-200h-200z" />
<glyph unicode="@" horiz-adv-x="950" d="M50 300v750q0 124 88 212t212 88h250q124 0 212 -88t88 -212v-750h-250q-124 0 -212 88t-88 212v150q0 124 88 212t212 88h50v50q0 41 -29.5 70.5t-70.5 29.5h-250q-41 0 -70.5 -29.5t-29.5 -70.5v-850q0 -41 29.5 -70.5t70.5 -29.5h100v-150h-100q-124 0 -212 88 t-88 212zM550 550q0 -41 29.5 -70.5t70.5 -29.5h50v450h-50q-41 0 -70.5 -29.5t-29.5 -70.5v-250z" />
<glyph unicode="A" d="M0 0l225 1350h250l225 -1350h-190l-50 300h-220l-50 -300h-190zM265 450h170l-85 510z" />
<glyph unicode="B" d="M50 0v1350h300q124 0 212 -88t88 -212v-190q0 -91 -88 -155q-23 -17 -49 -30q26 -13 49 -29q88 -65 88 -146v-200q0 -124 -88 -212t-212 -88h-300zM250 150h100q41 0 70.5 29.5t29.5 70.5v250q0 41 -29.5 70.5t-70.5 29.5h-100v-450zM250 750h100q41 0 70.5 29.5 t29.5 70.5v250q0 41 -29.5 70.5t-70.5 29.5h-100v-450z" />
<glyph unicode="C" d="M50 300v750q0 124 88 212t212 88t212 -88t88 -212v-100l-200 -25v175q0 41 -29.5 70.5t-70.5 29.5t-70.5 -29.5t-29.5 -70.5v-850q0 -41 29.5 -70.5t70.5 -29.5t70.5 29.5t29.5 70.5v175l200 -25v-100q0 -124 -88 -212t-212 -88t-212 88t-88 212z" />
<glyph unicode="D" d="M50 0v1350h300q124 0 212 -88t88 -212v-750q0 -124 -88 -212t-212 -88h-300zM250 150h100q41 0 70.5 29.5t29.5 70.5v850q0 41 -29.5 70.5t-70.5 29.5h-100v-1050z" />
<glyph unicode="E" horiz-adv-x="600" d="M50 0v1350h475v-150h-275v-450h225v-150h-225v-450h300v-150h-500z" />
<glyph unicode="F" horiz-adv-x="600" d="M50 0v1350h475v-150h-275v-450h225v-150h-225v-600h-200z" />
<glyph unicode="G" d="M50 300v750q0 124 88 212t212 88t212 -88t88 -212v-100l-200 -25v175q0 41 -29.5 70.5t-70.5 29.5t-70.5 -29.5t-29.5 -70.5v-850q0 -41 29.5 -70.5t70.5 -29.5h100v450h-100v150h300v-750h-300q-124 0 -212 88t-88 212z" />
<glyph unicode="H" d="M50 0v1350h200v-600h200v600h200v-1350h-200v600h-200v-600h-200z" />
<glyph unicode="I" horiz-adv-x="500" d="M50 0v150h100v1050h-100v150h400v-150h-100v-1050h100v-150h-400z" />
<glyph unicode="J" horiz-adv-x="500" d="M50 0v150h100q41 0 70.5 29.5t29.5 70.5v950h-100v150h300v-1050q0 -124 -88 -212t-212 -88h-100z" />
<glyph unicode="K" d="M50 0v1350h200v-600h10l240 600h200l-270 -675l270 -675h-200l-240 600h-10v-600h-200z" />
<glyph unicode="L" horiz-adv-x="600" d="M50 0v1350h200v-1200h300v-150h-500z" />
<glyph unicode="M" horiz-adv-x="1100" d="M50 0v1350h300l200 -964l200 964h300v-1350h-200v964l-200 -964h-200l-200 964v-964h-200z" />
<glyph unicode="N" d="M50 0v1350h200l200 -771v771h200v-1350h-200l-200 771v-771h-200z" />
<glyph unicode="O" d="M50 300v750q0 124 88 212t212 88t212 -88t88 -212v-750q0 -124 -88 -212t-212 -88t-212 88t-88 212zM250 250q0 -41 29.5 -70.5t70.5 -29.5t70.5 29.5t29.5 70.5v850q0 41 -29.5 70.5t-70.5 29.5t-70.5 -29.5t-29.5 -70.5v-850z" />
<glyph unicode="P" d="M50 0v1350h300q124 0 212 -88t88 -212v-150q0 -124 -88 -212t-212 -88h-100v-600h-200zM250 750h100q41 0 70.5 29.5t29.5 70.5v250q0 41 -29.5 70.5t-70.5 29.5h-100v-450z" />
<glyph unicode="Q" d="M50 300v750q0 124 88 212t212 88t212 -88t88 -212v-750q0 -124 -88 -212q-19 -19 -39 -34l52 -104h75v-150h-200l-100 200q-124 0 -212 88t-88 212zM250 250q0 -41 29.5 -70.5t70.5 -29.5t70.5 29.5t29.5 70.5v850q0 41 -29.5 70.5t-70.5 29.5t-70.5 -29.5t-29.5 -70.5 v-850z" />
<glyph unicode="R" d="M50 0v1350h300q124 0 212 -88t88 -212v-190q0 -91 -88 -155q-23 -17 -49 -30q26 -13 49 -29q88 -65 88 -156v-490h-200v490q0 45 -29.5 77.5t-70.5 32.5h-100v-600h-200zM250 750h100q41 0 70.5 29.5t29.5 70.5v250q0 41 -29.5 70.5t-70.5 29.5h-100v-450z" />
<glyph unicode="S" d="M50 300v100l200 25v-175q0 -41 29.5 -70.5t70.5 -29.5t70.5 29.5t29.5 70.5v100q0 100 -100 200l-200 200q-100 100 -100 250v50q0 124 88 212t212 88t212 -88t88 -212v-100l-200 -25v175q0 41 -29.5 70.5t-70.5 29.5t-70.5 -29.5t-29.5 -70.5v-100q0 -100 100 -200 l200 -200q100 -100 100 -250v-50q0 -124 -88 -212t-212 -88t-212 88t-88 212z" />
<glyph unicode="T" d="M50 1200v150h600v-150h-200v-1200h-200v1200h-200z" />
<glyph unicode="U" d="M50 300v1050h200v-1100q0 -41 29.5 -70.5t70.5 -29.5t70.5 29.5t29.5 70.5v1100h200v-1050q0 -124 -88 -212t-212 -88t-212 88t-88 212z" />
<glyph unicode="V" d="M0 1350h190l160 -960l160 960h190l-225 -1350h-250z" />
<glyph unicode="W" horiz-adv-x="1100" d="M0 1350h180l120 -953l120 953h260l120 -953l120 953h180l-170 -1350h-260l-120 953l-120 -953h-260z" />
<glyph unicode="X" horiz-adv-x="750" d="M0 0l280 675l-280 675h190l185 -446l185 446h190l-280 -675l280 -675h-190l-185 446l-185 -446h-190z" />
<glyph unicode="Y" d="M0 1350h190l160 -480l160 480h190l-250 -750v-600h-200v600z" />
<glyph unicode="Z" horiz-adv-x="650" d="M50 0v150l360 1050h-335v151h525v-151l-360 -1050h360v-150h-550z" />
<glyph unicode="[" horiz-adv-x="500" d="M50 0v1350h400v-150h-200v-1050h200v-150h-400z" />
<glyph unicode="\" horiz-adv-x="550" d="M0 1350h150l400 -1350h-150z" />
<glyph unicode="]" horiz-adv-x="500" d="M50 0v150h200v1050h-200v150h400v-1350h-400z" />
<glyph unicode="_" horiz-adv-x="600" d="M0 -300h600v-100h-600v100z" />
<glyph unicode="`" horiz-adv-x="400" d="M50 1350h200l100 -200h-150z" />
<glyph unicode="a" d="M0 0l225 1350h250l225 -1350h-190l-50 300h-220l-50 -300h-190zM265 450h170l-85 510z" />
<glyph unicode="b" d="M50 0v1350h300q124 0 212 -88t88 -212v-190q0 -91 -88 -155q-23 -17 -49 -30q26 -13 49 -29q88 -65 88 -146v-200q0 -124 -88 -212t-212 -88h-300zM250 150h100q41 0 70.5 29.5t29.5 70.5v250q0 41 -29.5 70.5t-70.5 29.5h-100v-450zM250 750h100q41 0 70.5 29.5 t29.5 70.5v250q0 41 -29.5 70.5t-70.5 29.5h-100v-450z" />
<glyph unicode="c" d="M50 300v750q0 124 88 212t212 88t212 -88t88 -212v-100l-200 -25v175q0 41 -29.5 70.5t-70.5 29.5t-70.5 -29.5t-29.5 -70.5v-850q0 -41 29.5 -70.5t70.5 -29.5t70.5 29.5t29.5 70.5v175l200 -25v-100q0 -124 -88 -212t-212 -88t-212 88t-88 212z" />
<glyph unicode="d" d="M50 0v1350h300q124 0 212 -88t88 -212v-750q0 -124 -88 -212t-212 -88h-300zM250 150h100q41 0 70.5 29.5t29.5 70.5v850q0 41 -29.5 70.5t-70.5 29.5h-100v-1050z" />
<glyph unicode="e" horiz-adv-x="600" d="M50 0v1350h475v-150h-275v-450h225v-150h-225v-450h300v-150h-500z" />
<glyph unicode="f" horiz-adv-x="600" d="M50 0v1350h475v-150h-275v-450h225v-150h-225v-600h-200z" />
<glyph unicode="g" d="M50 300v750q0 124 88 212t212 88t212 -88t88 -212v-100l-200 -25v175q0 41 -29.5 70.5t-70.5 29.5t-70.5 -29.5t-29.5 -70.5v-850q0 -41 29.5 -70.5t70.5 -29.5h100v450h-100v150h300v-750h-300q-124 0 -212 88t-88 212z" />
<glyph unicode="h" d="M50 0v1350h200v-600h200v600h200v-1350h-200v600h-200v-600h-200z" />
<glyph unicode="i" horiz-adv-x="500" d="M50 0v150h100v1050h-100v150h400v-150h-100v-1050h100v-150h-400z" />
<glyph unicode="j" horiz-adv-x="500" d="M50 0v150h100q41 0 70.5 29.5t29.5 70.5v950h-100v150h300v-1050q0 -124 -88 -212t-212 -88h-100z" />
<glyph unicode="k" d="M50 0v1350h200v-600h10l240 600h200l-270 -675l270 -675h-200l-240 600h-10v-600h-200z" />
<glyph unicode="l" horiz-adv-x="600" d="M50 0v1350h200v-1200h300v-150h-500z" />
<glyph unicode="m" horiz-adv-x="1100" d="M50 0v1350h300l200 -964l200 964h300v-1350h-200v964l-200 -964h-200l-200 964v-964h-200z" />
<glyph unicode="n" d="M50 0v1350h200l200 -771v771h200v-1350h-200l-200 771v-771h-200z" />
<glyph unicode="o" d="M50 300v750q0 124 88 212t212 88t212 -88t88 -212v-750q0 -124 -88 -212t-212 -88t-212 88t-88 212zM250 250q0 -41 29.5 -70.5t70.5 -29.5t70.5 29.5t29.5 70.5v850q0 41 -29.5 70.5t-70.5 29.5t-70.5 -29.5t-29.5 -70.5v-850z" />
<glyph unicode="p" d="M50 0v1350h300q124 0 212 -88t88 -212v-150q0 -124 -88 -212t-212 -88h-100v-600h-200zM250 750h100q41 0 70.5 29.5t29.5 70.5v250q0 41 -29.5 70.5t-70.5 29.5h-100v-450z" />
<glyph unicode="q" d="M50 300v750q0 124 88 212t212 88t212 -88t88 -212v-750q0 -124 -88 -212q-19 -19 -39 -34l52 -104h75v-150h-200l-100 200q-124 0 -212 88t-88 212zM250 250q0 -41 29.5 -70.5t70.5 -29.5t70.5 29.5t29.5 70.5v850q0 41 -29.5 70.5t-70.5 29.5t-70.5 -29.5t-29.5 -70.5 v-850z" />
<glyph unicode="r" d="M50 0v1350h300q124 0 212 -88t88 -212v-190q0 -91 -88 -155q-23 -17 -49 -30q26 -13 49 -29q88 -65 88 -156v-490h-200v490q0 45 -29.5 77.5t-70.5 32.5h-100v-600h-200zM250 750h100q41 0 70.5 29.5t29.5 70.5v250q0 41 -29.5 70.5t-70.5 29.5h-100v-450z" />
<glyph unicode="s" d="M50 300v100l200 25v-175q0 -41 29.5 -70.5t70.5 -29.5t70.5 29.5t29.5 70.5v100q0 100 -100 200l-200 200q-100 100 -100 250v50q0 124 88 212t212 88t212 -88t88 -212v-100l-200 -25v175q0 41 -29.5 70.5t-70.5 29.5t-70.5 -29.5t-29.5 -70.5v-100q0 -100 100 -200 l200 -200q100 -100 100 -250v-50q0 -124 -88 -212t-212 -88t-212 88t-88 212z" />
<glyph unicode="t" d="M50 1200v150h600v-150h-200v-1200h-200v1200h-200z" />
<glyph unicode="u" d="M50 300v1050h200v-1100q0 -41 29.5 -70.5t70.5 -29.5t70.5 29.5t29.5 70.5v1100h200v-1050q0 -124 -88 -212t-212 -88t-212 88t-88 212z" />
<glyph unicode="v" d="M0 1350h190l160 -960l160 960h190l-225 -1350h-250z" />
<glyph unicode="w" horiz-adv-x="1100" d="M0 1350h180l120 -953l120 953h260l120 -953l120 953h180l-170 -1350h-260l-120 953l-120 -953h-260z" />
<glyph unicode="x" horiz-adv-x="750" d="M0 0l280 675l-280 675h190l185 -446l185 446h190l-280 -675l280 -675h-190l-185 446l-185 -446h-190z" />
<glyph unicode="y" d="M0 1350h190l160 -480l160 480h190l-250 -750v-600h-200v600z" />
<glyph unicode="z" horiz-adv-x="650" d="M50 0v150l360 1050h-335v151h525v-151l-360 -1050h360v-150h-550z" />
<glyph unicode="{" horiz-adv-x="600" d="M50 600v150h50q41 0 70.5 29.5t29.5 70.5v200q0 124 88 212t212 88h50v-150h-50q-41 0 -70.5 -29.5t-29.5 -70.5v-240q0 -91 -88 -155q-23 -17 -49 -30q26 -13 49 -29q88 -65 88 -146v-250q0 -41 29.5 -70.5t70.5 -29.5h50v-150h-50q-124 0 -212 88t-88 212v200 q0 41 -29.5 70.5t-70.5 29.5h-50z" />
<glyph unicode="|" horiz-adv-x="250" d="M50 -200v1750h150v-1750h-150z" />
<glyph unicode="}" horiz-adv-x="600" d="M50 0v150h50q41 0 70.5 29.5t29.5 70.5v250q0 81 88 146q23 16 49 29q-26 13 -49 30q-88 64 -88 155v240q0 41 -29.5 70.5t-70.5 29.5h-50v150h50q124 0 212 -88t88 -212v-200q0 -41 29.5 -70.5t70.5 -29.5h50v-150h-50q-41 0 -70.5 -29.5t-29.5 -70.5v-200 q0 -124 -88 -212t-212 -88h-50z" />
<glyph unicode="&#xa1;" horiz-adv-x="300" d="M50 1v400l25 600h150l25 -600v-400h-200zM50 1151v200h200v-200h-200z" />
<glyph unicode="&#xa2;" d="M50 500v350q0 124 88 212q70 70 162 84v204h100v-204q92 -14 162 -84q88 -88 88 -212v-50l-200 -25v125q0 41 -29.5 70.5t-70.5 29.5t-70.5 -29.5t-29.5 -70.5v-450q0 -41 29.5 -70.5t70.5 -29.5t70.5 29.5t29.5 70.5v125l200 -25v-50q0 -124 -88 -212q-70 -70 -162 -84 v-204h-100v204q-92 14 -162 84q-88 88 -88 212z" />
<glyph unicode="&#xa3;" horiz-adv-x="800" d="M50 0v150h100v450h-100v150h100v300q0 124 88 212t212 88t212 -88t88 -212v-100l-200 -25v175q0 41 -29.5 70.5t-70.5 29.5t-70.5 -29.5t-29.5 -70.5v-350h200l-25 -150h-175v-450h100q41 0 70.5 29.5t29.5 70.5v175l200 -25v-100q0 -124 -88 -212t-212 -88h-400z" />
<glyph unicode="&#xa4;" horiz-adv-x="1300" d="M50 600v150h100v600h300l200 -964l200 964h300v-600h100v-150h-100v-600h-200v964l-200 -964h-200l-200 964v-964h-200v600h-100z" />
<glyph unicode="&#xa5;" d="M0 1350h190l160 -480l160 480h190l-250 -750h200v-150h-200v-150h200v-150h-200v-150h-200v150h-200v150h200v150h-200v150h200z" />
<glyph unicode="&#xa6;" horiz-adv-x="250" d="M50 -200v800h150v-800h-150zM50 750v800h150v-800h-150z" />
<glyph unicode="&#xa8;" horiz-adv-x="600" d="M50 1150v200h200v-200h-200zM350 1150v200h200v-200h-200z" />
<glyph unicode="&#xa9;" horiz-adv-x="1450" d="M50 675q0 280 197.5 477.5t477.5 197.5t477.5 -197.5t197.5 -477.5t-197.5 -477.5t-477.5 -197.5t-477.5 197.5t-197.5 477.5zM150 675q0 -238 168.5 -406.5t406.5 -168.5t406.5 168.5t168.5 406.5t-168.5 406.5t-406.5 168.5t-406.5 -168.5t-168.5 -406.5zM475 450v450 q0 104 73 177t177 73t177 -73t73 -177v-50l-150 -25v100q0 41 -29.5 70.5t-70.5 29.5t-70.5 -29.5t-29.5 -70.5v-500q0 -41 29.5 -70.5t70.5 -29.5t70.5 29.5t29.5 70.5v100l150 -25v-50q0 -104 -73 -177t-177 -73t-177 73t-73 177z" />
<glyph unicode="&#xab;" horiz-adv-x="750" d="M50 675l250 475h150l-249 -475l249 -475h-150zM299 675l250 475h150l-249 -475l249 -475h-150z" />
<glyph unicode="&#xac;" horiz-adv-x="650" d="M50 600v150h550v-350h-150v200h-400z" />
<glyph unicode="&#xad;" horiz-adv-x="500" d="M50 600v150h400v-150h-400z" />
<glyph unicode="&#xae;" horiz-adv-x="1450" d="M50 675q0 280 197.5 477.5t477.5 197.5t477.5 -197.5t197.5 -477.5t-197.5 -477.5t-477.5 -197.5t-477.5 197.5t-197.5 477.5zM150 675q0 -238 168.5 -406.5t406.5 -168.5t406.5 168.5t168.5 406.5t-168.5 406.5t-406.5 168.5t-406.5 -168.5t-168.5 -406.5zM475 200v950 h250q104 0 177 -73t73 -177v-74q0 -88 -73 -150q-10 -9 -21 -16q11 -7 21 -16q73 -62 73 -150v-294h-150v300q0 41 -29.5 70.5t-70.5 29.5h-100v-400h-150zM625 725h100q41 0 70.5 29.5t29.5 70.5v100q0 41 -29.5 70.5t-70.5 29.5h-100v-300z" />
<glyph unicode="&#xb0;" horiz-adv-x="500" d="M50 1150q0 83 58.5 141.5t141.5 58.5t141.5 -58.5t58.5 -141.5t-58.5 -141.5t-141.5 -58.5t-141.5 58.5t-58.5 141.5zM163 1150q0 -36 25.5 -61.5t61.5 -25.5t62 25.5t26 61.5t-26 62t-62 26t-61.5 -26t-25.5 -62z" />
<glyph unicode="&#xb1;" horiz-adv-x="650" d="M50 0v150h550v-150h-550zM50 600v150h200v200h150v-200h200v-150h-200v-200h-150v200h-200z" />
<glyph unicode="&#xb4;" horiz-adv-x="400" d="M50 1150l100 200h200l-150 -200h-150z" />
<glyph unicode="&#xb5;" horiz-adv-x="1100" d="M50 0v1350h300l200 -964l200 964h300v-1350h-200v964l-200 -964h-200l-200 964v-964h-200z" />
<glyph unicode="&#xb6;" horiz-adv-x="900" d="M50 1050q0 124 88 212t212 88h500v-1350h-150v1200h-150v-1200h-150v750h-50q-124 0 -212 88t-88 212z" />
<glyph unicode="&#xb7;" horiz-adv-x="300" d="M50 575v200h200v-200h-200z" />
<glyph unicode="&#xb8;" horiz-adv-x="500" d="M50 -300h200q21 0 35.5 22t14.5 53t-14.5 53t-35.5 22h-100v150h100v-50h50q62 0 106 -51t44 -124q0 -72 -44 -123.5t-106 -51.5h-225z" />
<glyph unicode="&#xbb;" horiz-adv-x="750" d="M50 200l250 475l-250 475h150l250 -475l-250 -475h-150zM300 200l250 475l-250 475h150l250 -475l-250 -475h-150z" />
<glyph unicode="&#xbf;" d="M50 301v150q0 124 88 212q56 56 126 76l11 262h150l17 -400h-92q-41 0 -70.5 -29.5t-29.5 -70.5v-250q0 -41 29.5 -70.5t70.5 -29.5t70.5 29.5t29.5 70.5v175l200 -25v-100q0 -124 -88 -212t-212 -88t-212 88t-88 212zM250 1151v200h200v-200h-200z" />
<glyph unicode="&#xc0;" d="M0 0l225 1350h250l225 -1350h-190l-50 300h-220l-50 -300h-190zM100 1650h200l100 -200h-150zM265 450h170l-85 510z" />
<glyph unicode="&#xc1;" d="M0 0l225 1350h250l225 -1350h-190l-50 300h-220l-50 -300h-190zM265 450h170l-85 510zM300 1450l100 200h200l-150 -200h-150z" />
<glyph unicode="&#xc2;" d="M0 0l225 1350h250l225 -1350h-190l-50 300h-220l-50 -300h-190zM100 1450l167 250h166l167 -250h-150l-100 150l-100 -150h-150zM265 450h170l-85 510z" />
<glyph unicode="&#xc3;" d="M0 0l225 1350h250l225 -1350h-190l-50 300h-220l-50 -300h-190zM100 1450q0 100 42.5 150t107.5 50q50 0 112.5 -37.5t87.5 -37.5q50 0 50 75h100q0 -100 -37.5 -150t-112.5 -50q-50 0 -112.5 37.5t-87.5 37.5q-50 0 -50 -75h-100zM265 450h170l-85 510z" />
<glyph unicode="&#xc4;" d="M0 0l225 1350h250l225 -1350h-190l-50 300h-220l-50 -300h-190zM100 1450v200h200v-200h-200zM265 450h170l-85 510zM400 1450v200h200v-200h-200z" />
<glyph unicode="&#xc5;" d="M0 0l225 1350h250l225 -1350h-190l-50 300h-220l-50 -300h-190zM200 1600q0 62 44 106t106 44t106 -44t44 -106t-44 -106t-106 -44t-106 44t-44 106zM265 450h170l-85 510zM288 1600q0 -26 18 -44t44 -18t44.5 18t18.5 44t-18.5 44.5t-44.5 18.5t-44 -18.5t-18 -44.5z " />
<glyph unicode="&#xc6;" horiz-adv-x="950" d="M0 0l225 1350h475l25 -150h-225l75 -450h175l25 -150h-175l75 -450h250l25 -150h-440l-50 300h-220l-50 -300h-190zM265 450h170l-85 510z" />
<glyph unicode="&#xc7;" d="M50 300v750q0 124 88 212t212 88t212 -88t88 -212v-100l-200 -25v175q0 41 -29.5 70.5t-70.5 29.5t-70.5 -29.5t-29.5 -70.5v-850q0 -41 29.5 -70.5t70.5 -29.5t70.5 29.5t29.5 70.5v175l200 -25v-100q0 -124 -88 -212q-70 -70 -162 -84v-54h50q62 0 106 -51t44 -124 q0 -72 -44 -123.5t-106 -51.5h-225l-25 100h200q21 0 35.5 22t14.5 53t-14.5 53t-35.5 22h-100v154q-92 14 -162 84q-88 88 -88 212z" />
<glyph unicode="&#xc8;" horiz-adv-x="600" d="M50 0v1350h475v-150h-275v-450h225v-150h-225v-450h300v-150h-500zM50 1650h200l100 -200h-150z" />
<glyph unicode="&#xc9;" horiz-adv-x="600" d="M50 0v1350h475v-150h-275v-450h225v-150h-225v-450h300v-150h-500zM250 1450l100 200h200l-150 -200h-150z" />
<glyph unicode="&#xca;" horiz-adv-x="600" d="M50 0v1350h475v-150h-275v-450h225v-150h-225v-450h300v-150h-500zM50 1450l167 250h166l167 -250h-150l-100 150l-100 -150h-150z" />
<glyph unicode="&#xcb;" horiz-adv-x="600" d="M50 0v1350h475v-150h-275v-450h225v-150h-225v-450h300v-150h-500zM50 1450v200h200v-200h-200zM350 1450v200h200v-200h-200z" />
<glyph unicode="&#xcc;" horiz-adv-x="500" d="M50 0v150h100v1050h-100v150h400v-150h-100v-1050h100v-150h-400zM50 1650h200l100 -200h-150z" />
<glyph unicode="&#xcd;" horiz-adv-x="500" d="M50 0v150h100v1050h-100v150h400v-150h-100v-1050h100v-150h-400zM150 1450l100 200h200l-150 -200h-150z" />
<glyph unicode="&#xce;" horiz-adv-x="500" d="M0 1450l167 250h166l167 -250h-150l-100 150l-100 -150h-150zM50 0v150h100v1050h-100v150h400v-150h-100v-1050h100v-150h-400z" />
<glyph unicode="&#xcf;" horiz-adv-x="500" d="M0 1450v200h200v-200h-200zM50 0v150h100v1050h-100v150h400v-150h-100v-1050h100v-150h-400zM300 1450v200h200v-200h-200z" />
<glyph unicode="&#xd0;" horiz-adv-x="800" d="M50 600v150h100v600h300q124 0 212 -88t88 -212v-750q0 -124 -88 -212t-212 -88h-300v600h-100zM350 150h100q41 0 70.5 29.5t29.5 70.5v850q0 41 -29.5 70.5t-70.5 29.5h-100v-450h100v-150h-100v-450z" />
<glyph unicode="&#xd1;" d="M50 0v1350h200l200 -771v771h200v-1350h-200l-200 771v-771h-200zM100 1450q0 100 42.5 150t107.5 50q50 0 112.5 -37.5t87.5 -37.5q50 0 50 75h100q0 -100 -37.5 -150t-112.5 -50q-50 0 -112.5 37.5t-87.5 37.5q-50 0 -50 -75h-100z" />
<glyph unicode="&#xd2;" d="M50 300v750q0 124 88 212t212 88t212 -88t88 -212v-750q0 -124 -88 -212t-212 -88t-212 88t-88 212zM100 1650h200l100 -200h-150zM250 250q0 -41 29.5 -70.5t70.5 -29.5t70.5 29.5t29.5 70.5v850q0 41 -29.5 70.5t-70.5 29.5t-70.5 -29.5t-29.5 -70.5v-850z" />
<glyph unicode="&#xd3;" d="M50 300v750q0 124 88 212t212 88t212 -88t88 -212v-750q0 -124 -88 -212t-212 -88t-212 88t-88 212zM250 250q0 -41 29.5 -70.5t70.5 -29.5t70.5 29.5t29.5 70.5v850q0 41 -29.5 70.5t-70.5 29.5t-70.5 -29.5t-29.5 -70.5v-850zM300 1450l100 200h200l-150 -200h-150z " />
<glyph unicode="&#xd4;" d="M50 300v750q0 124 88 212t212 88t212 -88t88 -212v-750q0 -124 -88 -212t-212 -88t-212 88t-88 212zM100 1450l167 250h166l167 -250h-150l-100 150l-100 -150h-150zM250 250q0 -41 29.5 -70.5t70.5 -29.5t70.5 29.5t29.5 70.5v850q0 41 -29.5 70.5t-70.5 29.5 t-70.5 -29.5t-29.5 -70.5v-850z" />
<glyph unicode="&#xd5;" d="M50 300v750q0 124 88 212t212 88t212 -88t88 -212v-750q0 -124 -88 -212t-212 -88t-212 88t-88 212zM100 1450q0 100 42.5 150t107.5 50q50 0 112.5 -37.5t87.5 -37.5q50 0 50 75h100q0 -100 -37.5 -150t-112.5 -50q-50 0 -112.5 37.5t-87.5 37.5q-50 0 -50 -75h-100z M250 250q0 -41 29.5 -70.5t70.5 -29.5t70.5 29.5t29.5 70.5v850q0 41 -29.5 70.5t-70.5 29.5t-70.5 -29.5t-29.5 -70.5v-850z" />
<glyph unicode="&#xd6;" d="M50 300v750q0 124 88 212t212 88t212 -88t88 -212v-750q0 -124 -88 -212t-212 -88t-212 88t-88 212zM100 1450v200h200v-200h-200zM250 250q0 -41 29.5 -70.5t70.5 -29.5t70.5 29.5t29.5 70.5v850q0 41 -29.5 70.5t-70.5 29.5t-70.5 -29.5t-29.5 -70.5v-850zM400 1450 v200h200v-200h-200z" />
<glyph unicode="&#xd7;" horiz-adv-x="750" d="M50 450l225 225l-225 225l100 100l225 -225l225 225l100 -100l-225 -225l225 -225l-100 -100l-225 225l-225 -225z" />
<glyph unicode="&#xd8;" horiz-adv-x="800" d="M0 200v150l100 100v600q0 124 88 212t212 88t212 -88t88 -212l100 100v-150l-100 -100v-600q0 -124 -88 -212t-212 -88t-212 88t-88 212zM300 250q0 -41 29.5 -70.5t70.5 -29.5t70.5 29.5t29.5 70.5v450l-200 -200v-250zM300 650l200 200v250q0 41 -29.5 70.5t-70.5 29.5 t-70.5 -29.5t-29.5 -70.5v-450z" />
<glyph unicode="&#xd9;" d="M50 300v1050h200v-1100q0 -41 29.5 -70.5t70.5 -29.5t70.5 29.5t29.5 70.5v1100h200v-1050q0 -124 -88 -212t-212 -88t-212 88t-88 212zM100 1650h200l100 -200h-150z" />
<glyph unicode="&#xda;" d="M50 300v1050h200v-1100q0 -41 29.5 -70.5t70.5 -29.5t70.5 29.5t29.5 70.5v1100h200v-1050q0 -124 -88 -212t-212 -88t-212 88t-88 212zM300 1450l100 200h200l-150 -200h-150z" />
<glyph unicode="&#xdb;" d="M50 300v1050h200v-1100q0 -41 29.5 -70.5t70.5 -29.5t70.5 29.5t29.5 70.5v1100h200v-1050q0 -124 -88 -212t-212 -88t-212 88t-88 212zM100 1450l167 250h166l167 -250h-150l-100 150l-100 -150h-150z" />
<glyph unicode="&#xdc;" d="M50 300v1050h200v-1100q0 -41 29.5 -70.5t70.5 -29.5t70.5 29.5t29.5 70.5v1100h200v-1050q0 -124 -88 -212t-212 -88t-212 88t-88 212zM100 1450v200h200v-200h-200zM400 1450v200h200v-200h-200z" />
<glyph unicode="&#xdd;" d="M0 1350h190l160 -480l160 480h190l-250 -750v-600h-200v600zM300 1450l100 200h200l-150 -200h-150z" />
<glyph unicode="&#xde;" d="M50 0v1350h200v-300h100q124 0 212 -88t88 -212v-150q0 -124 -88 -212t-212 -88h-100v-300h-200zM250 450h100q41 0 70.5 29.5t29.5 70.5v250q0 41 -29.5 70.5t-70.5 29.5h-100v-450z" />
<glyph unicode="&#xdf;" horiz-adv-x="1400" d="M50 300v100l200 25v-175q0 -41 29.5 -70.5t70.5 -29.5t70.5 29.5t29.5 70.5v100q0 100 -100 200l-200 200q-100 100 -100 250v50q0 124 88 212t212 88t212 -88t88 -212v-100l-200 -25v175q0 41 -29.5 70.5t-70.5 29.5t-70.5 -29.5t-29.5 -70.5v-100q0 -100 100 -200 l200 -200q100 -100 100 -250v-50q0 -124 -88 -212t-212 -88t-212 88t-88 212zM750 300v100l200 25v-175q0 -41 29.5 -70.5t70.5 -29.5t70.5 29.5t29.5 70.5v100q0 100 -100 200l-200 200q-100 100 -100 250v50q0 124 88 212t212 88t212 -88t88 -212v-100l-200 -25v175 q0 41 -29.5 70.5t-70.5 29.5t-70.5 -29.5t-29.5 -70.5v-100q0 -100 100 -200l200 -200q100 -100 100 -250v-50q0 -124 -88 -212t-212 -88t-212 88t-88 212z" />
<glyph unicode="&#xe0;" d="M0 0l225 1350h250l225 -1350h-190l-50 300h-220l-50 -300h-190zM100 1650h200l100 -200h-150zM265 450h170l-85 510z" />
<glyph unicode="&#xe1;" d="M0 0l225 1350h250l225 -1350h-190l-50 300h-220l-50 -300h-190zM265 450h170l-85 510zM300 1450l100 200h200l-150 -200h-150z" />
<glyph unicode="&#xe2;" d="M0 0l225 1350h250l225 -1350h-190l-50 300h-220l-50 -300h-190zM100 1450l167 250h166l167 -250h-150l-100 150l-100 -150h-150zM265 450h170l-85 510z" />
<glyph unicode="&#xe3;" d="M0 0l225 1350h250l225 -1350h-190l-50 300h-220l-50 -300h-190zM100 1450q0 100 42.5 150t107.5 50q50 0 112.5 -37.5t87.5 -37.5q50 0 50 75h100q0 -100 -37.5 -150t-112.5 -50q-50 0 -112.5 37.5t-87.5 37.5q-50 0 -50 -75h-100zM265 450h170l-85 510z" />
<glyph unicode="&#xe4;" d="M0 0l225 1350h250l225 -1350h-190l-50 300h-220l-50 -300h-190zM100 1450v200h200v-200h-200zM265 450h170l-85 510zM400 1450v200h200v-200h-200z" />
<glyph unicode="&#xe5;" d="M0 0l225 1350h250l225 -1350h-190l-50 300h-220l-50 -300h-190zM200 1600q0 62 44 106t106 44t106 -44t44 -106t-44 -106t-106 -44t-106 44t-44 106zM265 450h170l-85 510zM288 1600q0 -26 18 -44t44 -18t44.5 18t18.5 44t-18.5 44.5t-44.5 18.5t-44 -18.5t-18 -44.5z " />
<glyph unicode="&#xe6;" horiz-adv-x="950" d="M0 0l225 1350h475l25 -150h-225l75 -450h175l25 -150h-175l75 -450h250l25 -150h-440l-50 300h-220l-50 -300h-190zM265 450h170l-85 510z" />
<glyph unicode="&#xe7;" d="M50 300v750q0 124 88 212t212 88t212 -88t88 -212v-100l-200 -25v175q0 41 -29.5 70.5t-70.5 29.5t-70.5 -29.5t-29.5 -70.5v-850q0 -41 29.5 -70.5t70.5 -29.5t70.5 29.5t29.5 70.5v175l200 -25v-100q0 -124 -88 -212q-70 -70 -162 -84v-54h50q62 0 106 -51t44 -124 q0 -72 -44 -123.5t-106 -51.5h-225l-25 100h200q21 0 35.5 22t14.5 53t-14.5 53t-35.5 22h-100v154q-92 14 -162 84q-88 88 -88 212z" />
<glyph unicode="&#xe8;" horiz-adv-x="600" d="M50 0v1350h475v-150h-275v-450h225v-150h-225v-450h300v-150h-500zM50 1650h200l100 -200h-150z" />
<glyph unicode="&#xe9;" horiz-adv-x="600" d="M50 0v1350h475v-150h-275v-450h225v-150h-225v-450h300v-150h-500zM250 1450l100 200h200l-150 -200h-150z" />
<glyph unicode="&#xea;" horiz-adv-x="600" d="M50 0v1350h475v-150h-275v-450h225v-150h-225v-450h300v-150h-500zM50 1450l167 250h166l167 -250h-150l-100 150l-100 -150h-150z" />
<glyph unicode="&#xeb;" horiz-adv-x="600" d="M50 0v1350h475v-150h-275v-450h225v-150h-225v-450h300v-150h-500zM50 1450v200h200v-200h-200zM350 1450v200h200v-200h-200z" />
<glyph unicode="&#xec;" horiz-adv-x="500" d="M50 0v150h100v1050h-100v150h400v-150h-100v-1050h100v-150h-400zM50 1650h200l100 -200h-150z" />
<glyph unicode="&#xed;" horiz-adv-x="500" d="M50 0v150h100v1050h-100v150h400v-150h-100v-1050h100v-150h-400zM150 1450l100 200h200l-150 -200h-150z" />
<glyph unicode="&#xee;" horiz-adv-x="500" d="M0 1450l167 250h166l167 -250h-150l-100 150l-100 -150h-150zM50 0v150h100v1050h-100v150h400v-150h-100v-1050h100v-150h-400z" />
<glyph unicode="&#xef;" horiz-adv-x="500" d="M0 1450v200h200v-200h-200zM50 0v150h100v1050h-100v150h400v-150h-100v-1050h100v-150h-400zM300 1450v200h200v-200h-200z" />
<glyph unicode="&#xf0;" horiz-adv-x="800" d="M50 600v150h100v600h300q124 0 212 -88t88 -212v-750q0 -124 -88 -212t-212 -88h-300v600h-100zM350 150h100q41 0 70.5 29.5t29.5 70.5v850q0 41 -29.5 70.5t-70.5 29.5h-100v-450h100v-150h-100v-450z" />
<glyph unicode="&#xf1;" d="M50 0v1350h200l200 -771v771h200v-1350h-200l-200 771v-771h-200zM100 1450q0 100 42.5 150t107.5 50q50 0 112.5 -37.5t87.5 -37.5q50 0 50 75h100q0 -100 -37.5 -150t-112.5 -50q-50 0 -112.5 37.5t-87.5 37.5q-50 0 -50 -75h-100z" />
<glyph unicode="&#xf2;" d="M50 300v750q0 124 88 212t212 88t212 -88t88 -212v-750q0 -124 -88 -212t-212 -88t-212 88t-88 212zM100 1650h200l100 -200h-150zM250 250q0 -41 29.5 -70.5t70.5 -29.5t70.5 29.5t29.5 70.5v850q0 41 -29.5 70.5t-70.5 29.5t-70.5 -29.5t-29.5 -70.5v-850z" />
<glyph unicode="&#xf3;" d="M50 300v750q0 124 88 212t212 88t212 -88t88 -212v-750q0 -124 -88 -212t-212 -88t-212 88t-88 212zM250 250q0 -41 29.5 -70.5t70.5 -29.5t70.5 29.5t29.5 70.5v850q0 41 -29.5 70.5t-70.5 29.5t-70.5 -29.5t-29.5 -70.5v-850zM300 1450l100 200h200l-150 -200h-150z " />
<glyph unicode="&#xf4;" d="M50 300v750q0 124 88 212t212 88t212 -88t88 -212v-750q0 -124 -88 -212t-212 -88t-212 88t-88 212zM100 1450l167 250h166l167 -250h-150l-100 150l-100 -150h-150zM250 250q0 -41 29.5 -70.5t70.5 -29.5t70.5 29.5t29.5 70.5v850q0 41 -29.5 70.5t-70.5 29.5 t-70.5 -29.5t-29.5 -70.5v-850z" />
<glyph unicode="&#xf5;" d="M50 300v750q0 124 88 212t212 88t212 -88t88 -212v-750q0 -124 -88 -212t-212 -88t-212 88t-88 212zM100 1450q0 100 42.5 150t107.5 50q50 0 112.5 -37.5t87.5 -37.5q50 0 50 75h100q0 -100 -37.5 -150t-112.5 -50q-50 0 -112.5 37.5t-87.5 37.5q-50 0 -50 -75h-100z M250 250q0 -41 29.5 -70.5t70.5 -29.5t70.5 29.5t29.5 70.5v850q0 41 -29.5 70.5t-70.5 29.5t-70.5 -29.5t-29.5 -70.5v-850z" />
<glyph unicode="&#xf6;" d="M50 300v750q0 124 88 212t212 88t212 -88t88 -212v-750q0 -124 -88 -212t-212 -88t-212 88t-88 212zM100 1450v200h200v-200h-200zM250 250q0 -41 29.5 -70.5t70.5 -29.5t70.5 29.5t29.5 70.5v850q0 41 -29.5 70.5t-70.5 29.5t-70.5 -29.5t-29.5 -70.5v-850zM400 1450 v200h200v-200h-200z" />
<glyph unicode="&#xf7;" d="M50 600v150h600v-150h-600zM250 200v200h200v-200h-200zM250 950v200h200v-200h-200z" />
<glyph unicode="&#xf8;" horiz-adv-x="800" d="M0 200v150l100 100v600q0 124 88 212t212 88t212 -88t88 -212l100 100v-150l-100 -100v-600q0 -124 -88 -212t-212 -88t-212 88t-88 212zM300 250q0 -41 29.5 -70.5t70.5 -29.5t70.5 29.5t29.5 70.5v450l-200 -200v-250zM300 650l200 200v250q0 41 -29.5 70.5t-70.5 29.5 t-70.5 -29.5t-29.5 -70.5v-450z" />
<glyph unicode="&#xf9;" d="M50 300v1050h200v-1100q0 -41 29.5 -70.5t70.5 -29.5t70.5 29.5t29.5 70.5v1100h200v-1050q0 -124 -88 -212t-212 -88t-212 88t-88 212zM100 1650h200l100 -200h-150z" />
<glyph unicode="&#xfa;" d="M50 300v1050h200v-1100q0 -41 29.5 -70.5t70.5 -29.5t70.5 29.5t29.5 70.5v1100h200v-1050q0 -124 -88 -212t-212 -88t-212 88t-88 212zM300 1450l100 200h200l-150 -200h-150z" />
<glyph unicode="&#xfb;" d="M50 300v1050h200v-1100q0 -41 29.5 -70.5t70.5 -29.5t70.5 29.5t29.5 70.5v1100h200v-1050q0 -124 -88 -212t-212 -88t-212 88t-88 212zM100 1450l167 250h166l167 -250h-150l-100 150l-100 -150h-150z" />
<glyph unicode="&#xfc;" d="M50 300v1050h200v-1100q0 -41 29.5 -70.5t70.5 -29.5t70.5 29.5t29.5 70.5v1100h200v-1050q0 -124 -88 -212t-212 -88t-212 88t-88 212zM100 1450v200h200v-200h-200zM400 1450v200h200v-200h-200z" />
<glyph unicode="&#xfd;" d="M0 1350h190l160 -480l160 480h190l-250 -750v-600h-200v600zM300 1450l100 200h200l-150 -200h-150z" />
<glyph unicode="&#xfe;" d="M50 0v1350h200v-300h100q124 0 212 -88t88 -212v-150q0 -124 -88 -212t-212 -88h-100v-300h-200zM250 450h100q41 0 70.5 29.5t29.5 70.5v250q0 41 -29.5 70.5t-70.5 29.5h-100v-450z" />
<glyph unicode="&#xff;" d="M0 1350h190l160 -480l160 480h190l-250 -750v-600h-200v600zM100 1450v200h200v-200h-200zM400 1450v200h200v-200h-200z" />
<glyph unicode="&#x152;" horiz-adv-x="1000" d="M50 300v750q0 124 88 212t212 88h575v-150h-275v-450h225v-150h-225v-450h300v-150h-600q-124 0 -212 88t-88 212zM250 250q0 -41 29.5 -70.5t70.5 -29.5h100v1050h-100q-41 0 -70.5 -29.5t-29.5 -70.5v-850z" />
<glyph unicode="&#x153;" horiz-adv-x="1000" d="M50 300v750q0 124 88 212t212 88h575v-150h-275v-450h225v-150h-225v-450h300v-150h-600q-124 0 -212 88t-88 212zM250 250q0 -41 29.5 -70.5t70.5 -29.5h100v1050h-100q-41 0 -70.5 -29.5t-29.5 -70.5v-850z" />
<glyph unicode="&#x178;" d="M0 1350h190l160 -480l160 480h190l-250 -750v-600h-200v600zM100 1450v200h200v-200h-200zM400 1450v200h200v-200h-200z" />
<glyph unicode="&#x2c6;" horiz-adv-x="600" d="M50 1100l167 250h166l167 -250h-150l-100 150l-100 -150h-150z" />
<glyph unicode="&#x2dc;" horiz-adv-x="600" d="M50 1150q0 100 42.5 150t107.5 50q50 0 112.5 -37.5t87.5 -37.5q50 0 50 75h100q0 -100 -37.5 -150t-112.5 -50q-50 0 -112.5 37.5t-87.5 37.5q-50 0 -50 -75h-100z" />
<glyph unicode="&#x2000;" horiz-adv-x="875" />
<glyph unicode="&#x2001;" horiz-adv-x="1750" />
<glyph unicode="&#x2002;" horiz-adv-x="875" />
<glyph unicode="&#x2003;" horiz-adv-x="1750" />
<glyph unicode="&#x2004;" horiz-adv-x="583" />
<glyph unicode="&#x2005;" horiz-adv-x="437" />
<glyph unicode="&#x2006;" horiz-adv-x="291" />
<glyph unicode="&#x2007;" horiz-adv-x="291" />
<glyph unicode="&#x2008;" horiz-adv-x="218" />
<glyph unicode="&#x2009;" horiz-adv-x="350" />
<glyph unicode="&#x200a;" horiz-adv-x="97" />
<glyph unicode="&#x2010;" horiz-adv-x="500" d="M50 600v150h400v-150h-400z" />
<glyph unicode="&#x2011;" horiz-adv-x="500" d="M50 600v150h400v-150h-400z" />
<glyph unicode="&#x2012;" horiz-adv-x="500" d="M50 600v150h400v-150h-400z" />
<glyph unicode="&#x2013;" horiz-adv-x="500" d="M50 600v150h400v-150h-400z" />
<glyph unicode="&#x2014;" d="M50 600v150h600v-150h-600z" />
<glyph unicode="&#x2018;" horiz-adv-x="300" d="M50 950v200l100 200h100l-50 -200h50v-200h-200z" />
<glyph unicode="&#x2019;" horiz-adv-x="300" d="M50 950l50 200h-50v200h200v-200l-100 -200h-100z" />
<glyph unicode="&#x201a;" horiz-adv-x="300" d="M50 0v200h200v-200l-100 -200h-100l50 200h-50z" />
<glyph unicode="&#x201c;" horiz-adv-x="600" d="M50 950v200l100 200h100l-50 -200h50v-200h-200zM350 950v200l100 200h100l-50 -200h50v-200h-200z" />
<glyph unicode="&#x201d;" horiz-adv-x="600" d="M50 950l50 200h-50v200h200v-200l-100 -200h-100zM350 950l50 200h-50v200h200v-200l-100 -200h-100z" />
<glyph unicode="&#x201e;" horiz-adv-x="600" d="M50 0v200h200v-200l-100 -200h-100l50 200h-50zM350 0v200h200v-200l-100 -200h-100l50 200h-50z" />
<glyph unicode="&#x2022;" horiz-adv-x="400" d="M50 525v300h300v-300h-300z" />
<glyph unicode="&#x2026;" horiz-adv-x="900" d="M50 0v200h200v-200h-200zM350 0v200h200v-200h-200zM650 0v200h200v-200h-200z" />
<glyph unicode="&#x202f;" horiz-adv-x="350" />
<glyph unicode="&#x2039;" horiz-adv-x="500" d="M50 675l250 475h150l-249 -475l249 -475h-150z" />
<glyph unicode="&#x203a;" horiz-adv-x="500" d="M50 200l250 475l-250 475h150l250 -475l-250 -475h-150z" />
<glyph unicode="&#x205f;" horiz-adv-x="437" />
<glyph unicode="&#x20ac;" horiz-adv-x="800" d="M50 450v150h100v150h-100v150h100v150q0 124 88 212t212 88t212 -88t88 -212v-100l-200 -25v175q0 41 -29.5 70.5t-70.5 29.5t-70.5 -29.5t-29.5 -70.5v-200h150l-25 -150h-125v-150h125l-25 -150h-100v-200q0 -41 29.5 -70.5t70.5 -29.5t70.5 29.5t29.5 70.5v175 l200 -25v-100q0 -124 -88 -212t-212 -88t-212 88t-88 212v150h-100z" />
<glyph unicode="&#x2122;" horiz-adv-x="1060" d="M50 1250v100h325v-100h-100v-600h-125v600h-100zM425 650v700h175l118 -470l117 470h175v-700h-125v440l-110 -440h-115l-110 440v-440h-125z" />
<glyph unicode="&#x25fc;" horiz-adv-x="1350" d="M0 0v1350h1350v-1350h-1350z" />
</font>
</defs>
</svg>
